<svg xmlns="http://www.w3.org/2000/svg" viewBox="0 0 32 32" shape-rendering="crispEdges">
<rect x="0" y="0" width="32" height="32" fill="#020817"/>
<rect x="4" y="6" width="1" height="1" fill="#2563eb"/>
<rect x="18" y="6" width="1" height="1" fill="#2563eb"/>
<rect x="5" y="7" width="1" height="1" fill="#2563eb"/>
<rect x="14" y="7" width="1" height="1" fill="#2563eb"/>
<rect x="19" y="7" width="1" height="1" fill="#2563eb"/>
<rect x="6" y="8" width="1" height="1" fill="#2563eb"/>
<rect x="13" y="8" width="1" height="1" fill="#2563eb"/>
<rect x="22" y="8" width="1" height="1" fill="#2563eb"/>
<rect x="9" y="9" width="1" height="1" fill="#2563eb"/>
<rect x="16" y="9" width="1" height="1" fill="#22c55e"/>
<rect x="10" y="10" width="1" height="1" fill="#2563eb"/>
<rect x="15" y="10" width="1" height="1" fill="#22c55e"/>
<rect x="20" y="11" width="1" height="1" fill="#22c55e"/>
<rect x="21" y="11" width="1" height="1" fill="#38bdf8"/>
<rect x="19" y="12" width="1" height="1" fill="#38bdf8"/>
<rect x="22" y="12" width="1" height="1" fill="#22c55e"/>
<rect x="19" y="13" width="1" height="1" fill="#22c55e"/>
<rect x="22" y="13" width="1" height="1" fill="#38bdf8"/>
<rect x="26" y="13" width="1" height="1" fill="#22c55e"/>
<rect x="20" y="14" width="1" height="1" fill="#38bdf8"/>
<rect x="21" y="14" width="1" height="1" fill="#22c55e"/>
<rect x="25" y="14" width="1" height="1" fill="#22c55e"/>
<rect x="9" y="15" width="1" height="1" fill="#0ea5e9"/>
<rect x="10" y="15" width="1" height="1" fill="#38bdf8"/>
<rect x="11" y="15" width="1" height="1" fill="#0ea5e9"/>
<rect x="8" y="16" width="1" height="1" fill="#38bdf8"/>
<rect x="12" y="16" width="1" height="1" fill="#38bdf8"/>
<rect x="7" y="17" width="1" height="1" fill="#0ea5e9"/>
<rect x="13" y="17" width="1" height="1" fill="#0ea5e9"/>
<rect x="6" y="18" width="1" height="1" fill="#38bdf8"/>
<rect x="11" y="18" width="1" height="1" fill="#0ea5e9"/>
<rect x="12" y="18" width="1" height="1" fill="#38bdf8"/>
<rect x="14" y="18" width="1" height="1" fill="#38bdf8"/>
<rect x="10" y="19" width="1" height="1" fill="#38bdf8"/>
<rect x="12" y="19" width="1" height="1" fill="#0ea5e9"/>
<rect x="14" y="19" width="1" height="1" fill="#0ea5e9"/>
<rect x="23" y="19" width="1" height="1" fill="#22c55e"/>
<rect x="7" y="20" width="1" height="1" fill="#38bdf8"/>
<rect x="10" y="20" width="1" height="1" fill="#0ea5e9"/>
<rect x="11" y="20" width="1" height="1" fill="#38bdf8"/>
<rect x="13" y="20" width="1" height="1" fill="#38bdf8"/>
<rect x="22" y="20" width="1" height="1" fill="#22c55e"/>
<rect x="8" y="21" width="1" height="1" fill="#0ea5e9"/>
<rect x="12" y="21" width="1" height="1" fill="#0ea5e9"/>
<rect x="17" y="21" width="1" height="1" fill="#22c55e"/>
<rect x="9" y="22" width="1" height="1" fill="#38bdf8"/>
<rect x="10" y="22" width="1" height="1" fill="#0ea5e9"/>
<rect x="11" y="22" width="1" height="1" fill="#38bdf8"/>
<rect x="18" y="22" width="1" height="1" fill="#22c55e"/>
<rect x="7" y="23" width="1" height="1" fill="#0ea5e9"/>
<rect x="8" y="23" width="1" height="1" fill="#38bdf8"/>
<rect x="3" y="24" width="1" height="1" fill="#0ea5e9"/>
<rect x="4" y="24" width="1" height="1" fill="#38bdf8"/>
<rect x="5" y="24" width="1" height="1" fill="#0ea5e9"/>
<rect x="6" y="24" width="1" height="1" fill="#38bdf8"/>
<rect x="13" y="24" width="1" height="1" fill="#38bdf8"/>
<rect x="10" y="25" width="1" height="1" fill="#0ea5e9"/>
<rect x="11" y="25" width="1" height="1" fill="#38bdf8"/>
<rect x="12" y="25" width="1" height="1" fill="#0ea5e9"/>
<rect x="18" y="25" width="1" height="1" fill="#0ea5e9"/>
<rect x="16" y="26" width="1" height="1" fill="#0ea5e9"/>
<rect x="17" y="26" width="1" height="1" fill="#38bdf8"/>
</svg>
